<svg fill="none" height="92" viewBox="0 0 93 92" width="93" xmlns="http://www.w3.org/2000/svg"><rect fill="#fff" height="90.5618" rx="19.5" stroke="#c4cfe3" width="90.5618" x="1.37695" y=".5"/><path d="m32.5431 52.7313c0 2.906-2.3466 5.2548-5.2501 5.2548-2.9034 0-5.25-2.3488-5.25-5.2548s2.3466-5.2547 5.25-5.2547h5.2501zm2.6251 0c0-2.906 2.3466-5.2547 5.25-5.2547 2.9035 0 5.2501 2.3487 5.2501 5.2547v13.1369c0 2.906-2.3466 5.2547-5.2501 5.2547-2.9034 0-5.25-2.3487-5.25-5.2547z" fill="#e01e5a"/><path d="m40.415 31.6325c-2.9034 0-5.25-2.3487-5.25-5.2547s2.3466-5.2548 5.25-5.2548c2.9035 0 5.2501 2.3488 5.2501 5.2548v5.2547zm0 2.6672c2.9035 0 5.2501 2.3487 5.2501 5.2548 0 2.906-2.3466 5.2547-5.2501 5.2547h-13.1649c-2.9035 0-5.2501-2.3487-5.2501-5.2547 0-2.9061 2.3466-5.2548 5.2501-5.2548z" fill="#36c5f0"/><path d="m61.4572 39.5545c0-2.9061 2.3467-5.2548 5.2501-5.2548 2.9035 0 5.2501 2.3487 5.2501 5.2548 0 2.906-2.3466 5.2547-5.2501 5.2547h-5.2501zm-2.625 0c0 2.906-2.3466 5.2547-5.2501 5.2547-2.9034 0-5.2501-2.3487-5.2501-5.2547v-13.1767c0-2.906 2.3467-5.2548 5.2501-5.2548 2.9035 0 5.2501 2.3488 5.2501 5.2548z" fill="#2eb67d"/><path d="m53.5821 60.6134c2.9035 0 5.2501 2.3487 5.2501 5.2548 0 2.906-2.3466 5.2547-5.2501 5.2547-2.9034 0-5.2501-2.3487-5.2501-5.2547v-5.2548zm0-2.6273c-2.9034 0-5.2501-2.3488-5.2501-5.2548s2.3467-5.2547 5.2501-5.2547h13.165c2.9034 0 5.2501 2.3487 5.2501 5.2547s-2.3467 5.2548-5.2501 5.2548z" fill="#ecb22e"/></svg>